<?xml version="1.0" encoding="utf-8"?>
<!-- Svg Vector Icons : http://www.onlinewebfonts.com/icon -->
<!DOCTYPE svg PUBLIC "-//W3C//DTD SVG 1.1//EN" "http://www.w3.org/Graphics/SVG/1.1/DTD/svg11.dtd">
<svg version="1.1" xmlns="http://www.w3.org/2000/svg" xmlns:xlink="http://www.w3.org/1999/xlink" x="0px" y="0px" viewBox="0 0 256 256" enable-background="new 0 0 256 256" xml:space="preserve">
<metadata> Svg Vector Icons : http://www.onlinewebfonts.com/icon </metadata>
<g><g><path fill="#000000" d="M179.2,157.5l-11.8,34.4h23.7L179.2,157.5z M108.3,157.5v73.8c0,8.2,6.6,14.7,14.8,14.7h108.2c8.2,0,14.8-6.6,14.8-14.7V123.1c0-8.2-6.6-14.8-14.8-14.8h-73.8v34.4c0,8.2-6.6,14.8-14.8,14.8H108.3z M201.1,215.6c-0.8-1.5-1.4-2.9-1.9-4.1l-3.8-9.7h-32.3l-3.8,9.8c-1.5,3.8-2.7,6.4-3.8,7.8c-1.1,1.4-2.7,2-5.2,2c-2,0-3.8-0.7-5.4-2.1c-1.5-1.4-2.3-3.1-2.3-4.9c0-1,0.1-2.1,0.5-3.2c0.3-1.1,0.9-2.7,1.8-4.7l20.3-49.4c0.5-1.4,1.2-3.1,2.1-5.1c0.8-2,1.7-3.6,2.6-4.9c0.9-1.3,2.1-2.4,3.6-3.3c1.5-0.8,3.3-1.2,5.6-1.2c2.2,0,4.1,0.4,5.6,1.2c1.5,0.8,2.6,1.9,3.6,3.2c0.9,1.3,1.7,2.7,2.3,4.1c0.7,1.5,1.5,3.4,2.5,5.8l20.8,49.1c1.6,3.7,2.5,6.4,2.5,8.1c0,1.9-0.8,3.5-2.3,4.9c-1.5,1.5-3.4,2.2-5.5,2.2c-1.3,0-2.4-0.1-3.3-0.6c-0.9-0.5-1.6-1-2.2-1.8C202.5,218.3,201.8,217.1,201.1,215.6L201.1,215.6z M78.3,92.2c3.5,0,9.5,2.9,18,8.7c2.5-2.6,4.2-5.8,5.4-9.4c1.2-3.7,1.8-7.9,1.8-12.8c0-6.1-1.1-11.4-3.1-15.8c-2.1-4.5-5-7.8-8.8-10.1c-3.8-2.3-8.1-3.4-13-3.4c-3.5,0-6.8,0.7-9.7,1.9c-3,1.2-5.6,3.1-7.7,5.5c-2.2,2.5-3.9,5.5-5.1,9.3c-1.3,3.8-1.9,8-1.9,12.6c0,9.5,2.3,16.9,6.9,22.1c4.6,5.1,10.5,7.7,17.6,7.7c3,0,5.9-0.5,9-1.8c-1.8-1.3-4.1-2.6-6.9-3.9c-2.8-1.3-4.7-2.3-5.7-3.1c-1.1-0.7-1.5-1.7-1.5-3.1c0-1,0.4-2.1,1.4-3C76,92.7,77.1,92.2,78.3,92.2L78.3,92.2z M24.7,10C16.6,10,10,16.6,10,24.8v108.2c0,8.2,6.6,14.8,14.7,14.8h108.2c8.2,0,14.8-6.6,14.8-14.8V24.8c0-8.2-6.6-14.8-14.8-14.8H24.7L24.7,10z M118.2,80c0,12.5-3.2,22.4-9.3,29.6c2.2,1.4,4.6,2.7,7.2,4c2.6,1.3,4.4,2.3,5.2,3.1c0.8,0.7,1.3,1.8,1.3,3.2c0,0.9-0.5,1.9-1.6,3c-1,0.9-2.3,1.4-3.7,1.4c-1.2,0-2.6-0.3-4.3-1c-1.7-0.8-3.6-1.9-5.9-3.2c-2.3-1.5-4.8-3.1-7.4-4.9c-5.5,2.1-12.1,3.1-20,3.1c-6.4,0-12.1-0.9-17.2-2.8c-5.1-1.8-9.4-4.6-12.8-8.1c-3.4-3.5-6-7.7-7.8-12.6c-1.8-4.9-2.6-10.2-2.6-16c0-5.8,0.8-11.1,2.6-16c1.8-4.9,4.3-9,7.7-12.4c3.4-3.4,7.5-6,12.3-7.9c4.9-1.8,10.3-2.7,16.5-2.7c8.3,0,15.4,1.7,21.4,5c6,3.3,10.5,8,13.6,14.1C116.6,64.6,118.2,71.8,118.2,80L118.2,80z"/></g></g>
</svg>